<svg id="Group_9" data-name="Group 9" xmlns="http://www.w3.org/2000/svg" width="1048" height="786.038" viewBox="0 0 1048 786.038">
  <rect id="Rectangle_6" data-name="Rectangle 6" width="976" height="463.075" transform="translate(0 322.962)" fill="#6c63ff"/>
  <rect id="Rectangle_7" data-name="Rectangle 7" width="653.29" height="275.484" transform="translate(161.355 510.554)" fill="#f0f0f0"/>
  <rect id="Rectangle_8" data-name="Rectangle 8" width="653.29" height="2.624" transform="translate(161.355 527.363)" fill="#3f3d56"/>
  <circle id="Ellipse_2" data-name="Ellipse 2" cx="4.698" cy="4.698" r="4.698" transform="translate(168.433 515.008)" fill="#3f3d56"/>
  <circle id="Ellipse_3" data-name="Ellipse 3" cx="4.698" cy="4.698" r="4.698" transform="translate(184.541 515.008)" fill="#3f3d56"/>
  <circle id="Ellipse_4" data-name="Ellipse 4" cx="4.698" cy="4.698" r="4.698" transform="translate(200.649 515.008)" fill="#3f3d56"/>
  <path id="Path_3" data-name="Path 3" d="M522.161,651.159l6.955,14.093,15.552,2.259-11.253,10.97,2.656,15.489-13.91-7.313-13.91,7.313,2.656-15.489-11.253-10.97,15.552-2.259Z" fill="#6c63ff"/>
  <path id="Path_4" data-name="Path 4" d="M584.736,651.159l6.955,14.093,15.552,2.259-11.254,10.97,2.657,15.489-13.91-7.313-13.91,7.313,2.656-15.489-11.253-10.97,15.552-2.259Z" fill="#6c63ff"/>
  <path id="Path_5" data-name="Path 5" d="M647.311,651.159l6.955,14.093,15.552,2.259-11.254,10.97,2.657,15.489-13.91-7.313L633.4,693.97l2.656-15.489L624.8,667.511l15.552-2.259Z" fill="#6c63ff"/>
  <path id="Path_6" data-name="Path 6" d="M709.886,651.159l6.955,14.093,15.552,2.259-11.254,10.97L723.8,693.97l-13.91-7.313-13.91,7.313,2.656-15.489-11.253-10.97,15.552-2.259Z" fill="#6c63ff"/>
  <path id="Path_7" data-name="Path 7" d="M772.461,651.159l6.955,14.093,15.552,2.259-11.254,10.97,2.657,15.489-13.91-7.313L758.55,693.97l2.657-15.489-11.253-10.97,15.552-2.259Z" fill="#6c63ff"/>
  <rect id="Rectangle_9" data-name="Rectangle 9" width="254.495" height="161.355" transform="translate(205.957 591.887)" fill="#3f3d56"/>
  <path id="Path_8" data-name="Path 8" d="M257.853,322.962,0,499.98V409.294l125.752-86.332Z" opacity="0.1"/>
  <path id="Path_9" data-name="Path 9" d="M551.112,322.962,0,701.307v-90.7L419.011,322.962Z" opacity="0.1"/>
  <path id="Path_10" data-name="Path 10" d="M225.081,511.968,207.417,493.03l18.938-17.664L244.019,494.3Zm-14.848-18.84,14.946,16.024L241.2,494.206l-14.946-16.024Z" transform="translate(-76 -56.981)" fill="#f0f0f0"/>
  <path id="Path_11" data-name="Path 11" d="M808,500.056H782.1v-25.9H808Zm-23.9-1.992h21.913V476.151H784.1Z" transform="translate(-76 -56.981)" fill="#3f3d56"/>
  <circle id="Ellipse_5" data-name="Ellipse 5" cx="13.221" cy="13.221" r="13.221" transform="translate(879.228 637.641)" fill="#f0f0f0"/>
  <path id="Path_12" data-name="Path 12" d="M968.45,746.038a38.2,38.2,0,1,1,38.2-38.2,38.2,38.2,0,0,1-38.2,38.2Zm0-73.452a35.257,35.257,0,1,0,35.257,35.257,35.257,35.257,0,0,0-35.257-35.257Z" transform="translate(-76 -56.981)" fill="#2f2e41"/>
  <path id="Path_13" data-name="Path 13" d="M376.409,774.851c6.073,22.45,26.875,36.354,26.875,36.354s10.955-22.495,4.882-44.945-26.875-36.354-26.875-36.354S370.335,752.4,376.409,774.851Z" transform="translate(-76 -56.981)" fill="#fff"/>
  <path id="Path_14" data-name="Path 14" d="M385.333,770.027c16.665,16.223,18.7,41.16,18.7,41.16s-24.984-1.364-41.648-17.587-18.7-41.16-18.7-41.16S368.668,753.8,385.333,770.027Z" transform="translate(-76 -56.981)" fill="#6c63ff"/>
  <path id="Path_15" data-name="Path 15" d="M431.657,774.851c-6.073,22.45-26.875,36.354-26.875,36.354S393.827,788.71,399.9,766.26s26.875-36.354,26.875-36.354S437.731,752.4,431.657,774.851Z" transform="translate(-76 -56.981)" fill="#fff"/>
  <path id="Path_16" data-name="Path 16" d="M422.733,770.027c-16.665,16.223-18.7,41.16-18.7,41.16s24.984-1.364,41.648-17.587,18.7-41.16,18.7-41.16S439.4,753.8,422.733,770.027Z" transform="translate(-76 -56.981)" fill="#6c63ff"/>
  <rect id="Rectangle_10" data-name="Rectangle 10" width="103" height="120" transform="translate(744 25)" fill="#f2f2f2"/>
  <path id="Path_17" data-name="Path 17" d="M887.981,381.329l-1.431-1.4a73.107,73.107,0,0,0,14.662-25.651c4.866-14.643,7.243-37.769-9.068-64.783-16.688-27.64-17.439-50.089-15.131-64.055,2.512-15.2,8.921-23.714,9.192-24.069l1.589,1.214c-.064.083-6.417,8.556-8.828,23.3-2.226,13.611-1.449,35.517,14.889,62.577,16.728,27.705,14.25,51.473,9.226,66.533C897.638,371.315,888.373,380.928,887.981,381.329Z" transform="translate(-76 -56.981)" fill="#3f3d56"/>
  <path id="Path_18" data-name="Path 18" d="M963,202.981H819v-144H963Zm-142-2H961v-140H821Z" transform="translate(-76 -56.981)" fill="#3f3d56"/>
  <rect id="Rectangle_11" data-name="Rectangle 11" width="88" height="2" transform="translate(773 44)" fill="#3f3d56"/>
  <rect id="Rectangle_12" data-name="Rectangle 12" width="88" height="2" transform="translate(773 66)" fill="#3f3d56"/>
  <rect id="Rectangle_13" data-name="Rectangle 13" width="88" height="2" transform="translate(773 88)" fill="#3f3d56"/>
  <rect id="Rectangle_14" data-name="Rectangle 14" width="103" height="120" transform="translate(905 112)" fill="#f2f2f2"/>
  <path id="Path_19" data-name="Path 19" d="M1048.981,468.329l-1.431-1.4a73.1,73.1,0,0,0,14.662-25.651c4.866-14.643,7.243-37.769-9.068-64.783-16.688-27.64-17.439-50.089-15.131-64.055,2.512-15.2,8.921-23.714,9.192-24.069l1.589,1.214c-.064.083-6.417,8.556-8.828,23.3-2.226,13.611-1.449,35.517,14.889,62.577,16.728,27.705,14.25,51.473,9.226,66.533C1058.638,458.315,1049.373,467.928,1048.981,468.329Z" transform="translate(-76 -56.981)" fill="#3f3d56"/>
  <path id="Path_20" data-name="Path 20" d="M1124,289.981H980v-144h144Zm-142-2h140v-140H982Z" transform="translate(-76 -56.981)" fill="#3f3d56"/>
  <rect id="Rectangle_15" data-name="Rectangle 15" width="88" height="2" transform="translate(934 131)" fill="#3f3d56"/>
  <rect id="Rectangle_16" data-name="Rectangle 16" width="88" height="2" transform="translate(934 153)" fill="#3f3d56"/>
  <rect id="Rectangle_17" data-name="Rectangle 17" width="88" height="2" transform="translate(934 175)" fill="#3f3d56"/>
  <rect id="Rectangle_18" data-name="Rectangle 18" width="103" height="120" transform="translate(139 23)" fill="#f2f2f2"/>
  <path id="Path_21" data-name="Path 21" d="M282.981,379.329l-1.431-1.4a73.106,73.106,0,0,0,14.662-25.651c4.866-14.643,7.243-37.769-9.068-64.783-16.688-27.64-17.439-50.089-15.131-64.055,2.512-15.2,8.921-23.714,9.192-24.069l1.589,1.214c-.064.083-6.417,8.556-8.828,23.3-2.226,13.611-1.449,35.517,14.889,62.577,16.728,27.705,14.25,51.473,9.226,66.533C292.638,369.315,283.373,378.928,282.981,379.329Z" transform="translate(-76 -56.981)" fill="#3f3d56"/>
  <path id="Path_22" data-name="Path 22" d="M358,200.981H214v-144H358Zm-142-2H356v-140H216Z" transform="translate(-76 -56.981)" fill="#3f3d56"/>
  <rect id="Rectangle_19" data-name="Rectangle 19" width="88" height="2" transform="translate(168 42)" fill="#3f3d56"/>
  <rect id="Rectangle_20" data-name="Rectangle 20" width="88" height="2" transform="translate(168 64)" fill="#3f3d56"/>
  <rect id="Rectangle_21" data-name="Rectangle 21" width="88" height="2" transform="translate(168 86)" fill="#3f3d56"/>
  <path id="Path_23" data-name="Path 23" d="M469.461,366.159l6.955,14.093,15.552,2.259-11.254,10.97,2.657,15.489-13.91-7.313L455.55,408.97l2.657-15.489-11.253-10.97,15.552-2.259Z" fill="#f0f0f0"/>
  <path id="Path_24" data-name="Path 24" d="M570.6,105.392h0c24.032,0,43.514,21.62,43.514,48.291v33.885H603.7l-6.033-12.555,1.508,12.555H532.185L526.7,176.154l1.371,11.413H520.53V160.962C520.53,130.272,542.948,105.392,570.6,105.392Z" transform="translate(-76 -56.981)" fill="#2f2e41"/>
  <path id="Path_25" data-name="Path 25" d="M620.462,326.777l26.717,11.355,92.842,75.476a27.326,27.326,0,0,1,6.011,14.694c.668,8.683,28.721,54.1,18.7,60.113s-46.087,24.045-48.091,12.023-12.691-63.453-12.691-63.453l-89.5-80.151Z" transform="translate(-76 -56.981)" fill="#2f2e41"/>
  <path id="Path_26" data-name="Path 26" d="M725.326,490.42l11.355,33.4s-12.023,12.691-6.011,23.377v36.736h9.351l2.672-19.37s10.651,19.125,16.03,19.37c11.277.513,33.609,4.524,34.277-1.487s-16.911-11.872-16.911-11.872l-18.7-51.43-8.015-31.393Z" transform="translate(-76 -56.981)" fill="#2f2e41"/>
  <path id="Path_27" data-name="Path 27" d="M551,318.094s-6.011,58.778,11.355,69.464S656.53,432.31,656.53,432.31s-32.728,30.725-26.049,38.072,36.736,27.385,40.744,23.377,48.759-52.1,43.415-67.461-79.483-65.457-79.483-65.457l-8.683-31.393L623.8,304.068l-28.053-18.034Z" transform="translate(-76 -56.981)" fill="#2f2e41"/>
  <circle id="Ellipse_6" data-name="Ellipse 6" cx="27.845" cy="27.845" r="27.845" transform="translate(477.754 68.575)" fill="#ffb9b9"/>
  <path id="Path_28" data-name="Path 28" d="M560.015,164.8s1.336,25.381-19.37,33.4,51.43,60.113,51.43,60.113v-58.11s-9.351-10.019,0-25.381Z" transform="translate(-76 -56.981)" fill="#ffb9b9"/>
  <path id="Path_29" data-name="Path 29" d="M515.6,284.03l5.343,26.049,16.03,89.5s-13.359,38.072,4.675,37.4S551,395.574,551,395.574l-9.351-74.14V292.713Z" transform="translate(-76 -56.981)" fill="#ffb9b9"/>
  <path id="Path_30" data-name="Path 30" d="M630.481,271.339l6.011,23.377,27.385,66.125s18.7,31.393,3.34,30.725-15.362-30.725-15.362-30.725l-31.393-53.434V277.351Z" transform="translate(-76 -56.981)" fill="#ffb9b9"/>
  <path id="Path_31" data-name="Path 31" d="M635.156,466.374,613.115,487.08s-15.362-3.34-21.374,14.694-10.019,29.389-10.019,29.389l8.015,4.675,10.019-14.026s6.011,25.381,12.023,27.385,36.068,15.362,33.4,0l-14.694-21.374s-2-24.045,4.008-26.049,22.042-22.042,22.042-22.042Z" transform="translate(-76 -56.981)" fill="#2f2e41"/>
  <path id="Path_32" data-name="Path 32" d="M549.939,338.8s62.785-22.71,66.793-20.706a30.12,30.12,0,0,0,9.408,2.442l-.057-9.121s-20.706-7.347-32.06-2.672-46.087,25.381-46.087,25.381Z" transform="translate(-76 -56.981)" fill="#3f3d56"/>
  <path id="Path_33" data-name="Path 33" d="M588.067,244.956s-18.034-20.706-23.377-33.4a32.791,32.791,0,0,0-17.335-17.046s-40.106,9.031-39.438,25.061S533.3,260.319,533.3,260.319s-3.34,88.834,14.694,87.5a38.684,38.684,0,0,0,8.015-16.03c2-9.351,64.121-19.37,64.121-19.37s5.343,9.351,6.011,5.343S620.8,215.567,620.8,215.567l-31.851-21.054Z" transform="translate(-76 -56.981)" fill="#d0cde1"/>
  <path id="Path_34" data-name="Path 34" d="M513.061,213.123l-.447.251a9.215,9.215,0,0,0-4.705,8.037l.007,49.569a9.288,9.288,0,0,1-3.3,7.069c-2.573,2.188-4.959,5.342-.035,6.983,8.015,2.672,39.408,16.03,40.076,11.355s2-10.019,0-10.019c-1.569,0-10.915-47.9-18.426-68.374a9.216,9.216,0,0,0-13.165-4.871Z" transform="translate(-76 -56.981)" fill="#d0cde1"/>
  <path id="Path_35" data-name="Path 35" d="M611.779,213.23l9.351,2.672,10.687,46.087s12.691,2.672,8.683,7.347-20.706,16.7-20.706,16.7Z" transform="translate(-76 -56.981)" fill="#d0cde1"/>
  <path id="Path_36" data-name="Path 36" d="M558.233,118.695a22.821,22.821,0,0,1,18.006-9.189h.854c16.472,0,29.824,14.9,29.824,33.291H601.4l-.891-6.785L599.2,142.8H566.466l-2.742-5.74.686,5.74h-6.44q-4.508,22.385,12.953,44.771h-10.97l-5.485-11.48,1.371,11.48H534.928l-4.114-26.4C530.814,141.391,542.3,124.623,558.233,118.695Z" transform="translate(-76 -56.981)" fill="#2f2e41"/>
</svg>
