<svg id="Group_9" data-name="Group 9" xmlns="http://www.w3.org/2000/svg" width="894.134" height="586.584" viewBox="0 0 894.134 586.584">
  <ellipse id="Ellipse_2" data-name="Ellipse 2" cx="447.067" cy="28.061" rx="447.067" ry="28.061" transform="translate(0 530.461)" fill="#e6e6e6"/>
  <path id="Path_3" data-name="Path 3" d="M836.232,156.708a3.182,3.182,0,0,0-3.179,3.179V284.492a3.182,3.182,0,0,0,3.179,3.179H981.773a3.182,3.182,0,0,0,3.179-3.179V159.887a3.182,3.182,0,0,0-3.179-3.179Z" transform="translate(-152.933 -156.708)" fill="#e6e6e6"/>
  <path id="Path_4" data-name="Path 4" d="M856.417,231.709a1.4,1.4,0,0,0,0,2.739H962.9a1.4,1.4,0,0,0,0-2.739Z" transform="translate(-152.933 -156.708)" fill="#fff"/>
  <path id="Path_5" data-name="Path 5" d="M855.108,247.982a1.4,1.4,0,0,0,0,2.739h106.48a1.4,1.4,0,0,0,0-2.739Z" transform="translate(-152.933 -156.708)" fill="#fff"/>
  <path id="Path_6" data-name="Path 6" d="M856.417,264.256a1.4,1.4,0,0,0,0,2.739H962.9a1.4,1.4,0,0,0,0-2.739Z" transform="translate(-152.933 -156.708)" fill="#fff"/>
  <path id="Path_7" data-name="Path 7" d="M856.417,177.384a1.4,1.4,0,0,0,0,2.74H962.9a1.4,1.4,0,0,0,0-2.74Z" transform="translate(-152.933 -156.708)" fill="#fff"/>
  <path id="Path_8" data-name="Path 8" d="M855.108,193.658a1.4,1.4,0,0,0,0,2.74h106.48a1.4,1.4,0,0,0,0-2.74Z" transform="translate(-152.933 -156.708)" fill="#fff"/>
  <path id="Path_9" data-name="Path 9" d="M856.417,209.931a1.4,1.4,0,0,0,0,2.74H962.9a1.4,1.4,0,0,0,0-2.74Z" transform="translate(-152.933 -156.708)" fill="#fff"/>
  <path id="Path_10" data-name="Path 10" d="M771.179,207.662A3.182,3.182,0,0,0,768,210.841V335.446a3.182,3.182,0,0,0,3.179,3.179H916.72a3.182,3.182,0,0,0,3.179-3.179V210.841a3.182,3.182,0,0,0-3.179-3.179Z" transform="translate(-152.933 -156.708)" fill="#6c63ff"/>
  <path id="Path_11" data-name="Path 11" d="M791.364,282.663a1.4,1.4,0,0,0,0,2.739h106.48a1.4,1.4,0,0,0,0-2.739Z" transform="translate(-152.933 -156.708)" fill="#fff"/>
  <path id="Path_12" data-name="Path 12" d="M790.055,298.936a1.4,1.4,0,0,0,0,2.739h106.48a1.4,1.4,0,0,0,0-2.739Z" transform="translate(-152.933 -156.708)" fill="#fff"/>
  <path id="Path_13" data-name="Path 13" d="M791.364,315.21a1.4,1.4,0,0,0,0,2.739h106.48a1.4,1.4,0,0,0,0-2.739Z" transform="translate(-152.933 -156.708)" fill="#fff"/>
  <path id="Path_14" data-name="Path 14" d="M791.364,228.339a1.4,1.4,0,0,0,0,2.74h106.48a1.4,1.4,0,0,0,0-2.74Z" transform="translate(-152.933 -156.708)" fill="#fff"/>
  <path id="Path_15" data-name="Path 15" d="M790.055,244.612a1.4,1.4,0,0,0,0,2.74h106.48a1.4,1.4,0,0,0,0-2.74Z" transform="translate(-152.933 -156.708)" fill="#fff"/>
  <path id="Path_16" data-name="Path 16" d="M791.364,260.886a1.4,1.4,0,0,0,0,2.74h106.48a1.4,1.4,0,0,0,0-2.74Z" transform="translate(-152.933 -156.708)" fill="#fff"/>
  <path id="Path_17" data-name="Path 17" d="M823.848,515.784l.763,14.494,16.019-1.526L839.1,514.259Z" fill="#fbbebe"/>
  <path id="Path_18" data-name="Path 18" d="M762.058,499l.763,14.494,16.02-1.526-1.526-14.494Z" fill="#fbbebe"/>
  <path id="Path_19" data-name="Path 19" d="M987.842,475.3l-57.975,9.917-3.814,105.271L910.8,657.617l24.411,10.68,23.648-66.367,8.391-58.738,6.1,58.738.763,73.995,37.379-2.289-8.936-144.9A134.808,134.808,0,0,0,987.842,475.3Z" transform="translate(-152.933 -156.708)" fill="#2f2e41"/>
  <path id="Path_20" data-name="Path 20" d="M979.07,681.646s-5.34-6.1-5.34-3.814-3.051,24.411-3.051,24.411,20.6,6.1,20.6,9.917,29.751,9.917,28.988,2.289-26.7-36.616-26.7-36.616S982.884,676.307,979.07,681.646Z" transform="translate(-152.933 -156.708)" fill="#2f2e41"/>
  <path id="Path_21" data-name="Path 21" d="M918.208,664.956s-1.626-7.944-2.757-5.955-14.717,19.713-14.717,19.713,14.889,15.484,13,18.8,20.962,23.324,24.069,16.316-5.114-45.027-5.114-45.027S924.163,662.2,918.208,664.956Z" transform="translate(-152.933 -156.708)" fill="#2f2e41"/>
  <path id="Path_22" data-name="Path 22" d="M764.106,234.5l42.232,4.038,14.077-38.362-40.43-9.74Z" fill="#2f2e41"/>
  <circle id="Ellipse_3" data-name="Ellipse 3" cx="21.359" cy="21.359" r="21.359" transform="translate(777.315 183.951)" fill="#fbbebe"/>
  <path id="Path_23" data-name="Path 23" d="M939.4,374.987s0,14.494-11.443,20.6,27.462,12.968,27.462,12.968l3.814-12.968s-11.443-5.34-1.526-17.545Z" transform="translate(-152.933 -156.708)" fill="#fbbebe"/>
  <path id="Path_24" data-name="Path 24" d="M957.71,391.769s-13.971,8.654-25.675.894l-4.838-.894L912.7,394.821l-6.866,25.936L931.774,485.6s45.007,7.628,54.161-9.154l-5.34-68.655L966.1,390.244Z" transform="translate(-152.933 -156.708)" fill="#575a89"/>
  <path id="Path_25" data-name="Path 25" d="M811.643,235.824l25.173-35.091-2.288-3.814-32.8-16.782v-10.68l51.11,13.731,3.458,5.48-30.158,65.464Z" fill="#575a89"/>
  <path id="Path_26" data-name="Path 26" d="M761.295,238.875l-1.525-.763-38.142-1.525,28.988-25.174-9.154-11.442-43.482,32.8V240.4l61.79,25.936Z" fill="#575a89"/>
  <path id="Path_27" data-name="Path 27" d="M894.013,360.112l5.34-3.051s11.443-15.257,16.02-9.154-10.68,17.545-10.68,17.545L896.3,368.5Z" transform="translate(-152.933 -156.708)" fill="#fbbebe"/>
  <path id="Path_28" data-name="Path 28" d="M956.947,328.454l-8.391-4.577s-25.174,2.289-22.122,7.628,20.6.763,20.6.763l9.917,3.051Z" transform="translate(-152.933 -156.708)" fill="#fbbebe"/>
  <path id="Path_29" data-name="Path 29" d="M935.21,341.4s-9.8,3.268-10.3,16.175a22.889,22.889,0,0,0,.681,6.129c.552,2.34.907,7.374-3.372,13.953a138.116,138.116,0,0,0-7.839,13.484l-.031.061,10.768,1.346L927.4,374.7a88.88,88.88,0,0,1,7.058-25.058l.075-.166s4.711,8.749,14.133,8.749l-3.365-3.365s14.806,6.057,20.19,6.057c0,0,4.038,2.692,0,6.73s-12.114,13.46-7.4,20.864.673,9.422.673,9.422l7.4-4.038,3.365-2.019v2.692l17.5-2.019s4.711-.673-5.384-12.114c0,0-2.666-4.443-1.5-8.275a19.329,19.329,0,0,0,.735-9.04C978.622,350.507,969.749,325.423,935.21,341.4Z" transform="translate(-152.933 -156.708)" fill="#2f2e41"/>
  <path id="Path_30" data-name="Path 30" d="M321.29,353.864a1.992,1.992,0,0,0-1.99,1.99V507.87a1.992,1.992,0,0,0,1.99,1.99H668.3a1.992,1.992,0,0,0,1.99-1.99V355.853a1.992,1.992,0,0,0-1.99-1.99Z" transform="translate(-152.933 -156.708)" fill="#e6e6e6"/>
  <path id="Path_31" data-name="Path 31" d="M621.344,383.854h-253.1a2.388,2.388,0,0,1,0-4.775h253.1a2.388,2.388,0,0,1,0,4.775Z" transform="translate(-152.933 -156.708)" fill="#fff"/>
  <path id="Path_32" data-name="Path 32" d="M621.344,402.956h-253.1a2.388,2.388,0,1,1,0-4.775h253.1a2.388,2.388,0,0,1,0,4.775Z" transform="translate(-152.933 -156.708)" fill="#fff"/>
  <path id="Path_33" data-name="Path 33" d="M621.344,422.057h-253.1a2.388,2.388,0,1,1,0-4.775h253.1a2.388,2.388,0,0,1,0,4.775Z" transform="translate(-152.933 -156.708)" fill="#fff"/>
  <path id="Path_34" data-name="Path 34" d="M621.344,441.014h-253.1a2.388,2.388,0,1,1,0-4.775h253.1a2.388,2.388,0,0,1,0,4.775Z" transform="translate(-152.933 -156.708)" fill="#fff"/>
  <path id="Path_35" data-name="Path 35" d="M621.344,460.116h-253.1a2.388,2.388,0,1,1,0-4.775h253.1a2.388,2.388,0,0,1,0,4.775Z" transform="translate(-152.933 -156.708)" fill="#fff"/>
  <path id="Path_36" data-name="Path 36" d="M557.1,476.01a.682.682,0,0,0-.682.682v18.074a.683.683,0,0,0,.682.682h63.223a.682.682,0,0,0,.682-.682V476.692a.683.683,0,0,0-.682-.682Z" transform="translate(-152.933 -156.708)" fill="#fff"/>
  <path id="Path_37" data-name="Path 37" d="M210.777,509.513s-5.22,62.764-6.341,76.214a95.649,95.649,0,0,1-5.6,24.657,23.186,23.186,0,0,0-2.242,8.966v57.16s-4.483,0-3.362,4.483,2.242,12.328,2.242,12.328h16.812s-1.121-3.362,2.242-4.483,0-10.087,0-10.087L232.456,611.5l26.9-56.039S275.045,605.9,278.408,611.5c0,0,12.329,62.763,14.57,68.367s3.362,5.6,2.242,7.845-1.121,4.483,0,5.6,22.415,0,22.415,0l-5.6-79.575L301.944,518.48l-51.556-15.691Z" transform="translate(-152.933 -156.708)" fill="#2f2e41"/>
  <path id="Path_38" data-name="Path 38" d="M207.8,684.355s-5.6-20.174-14.57-4.483-8.966,21.295-8.966,21.295-14.57,21.295,5.6,19.053,15.691-12.329,15.691-12.329,7.845-4.483,7.845-7.845S207.8,684.355,207.8,684.355Z" transform="translate(-152.933 -156.708)" fill="#2f2e41"/>
  <path id="Path_39" data-name="Path 39" d="M298.582,682.113s5.6-20.174,14.57-4.483,8.966,21.295,8.966,21.295,14.57,21.295-5.6,19.053-15.691-12.329-15.691-12.329-7.845-4.483-7.845-7.845S298.582,682.113,298.582,682.113Z" transform="translate(-152.933 -156.708)" fill="#2f2e41"/>
  <path id="Path_40" data-name="Path 40" d="M245.905,358.209s2.242,14.57-4.483,17.932,14.57,15.691,20.174,15.691,15.691-11.208,15.691-11.208-5.6-16.812-4.483-20.174Z" transform="translate(-152.933 -156.708)" fill="#ffb9b9"/>
  <circle id="Ellipse_4" data-name="Ellipse 4" cx="23.536" cy="23.536" r="23.536" transform="translate(81.764 165.637)" fill="#ffb9b9"/>
  <path id="Path_41" data-name="Path 41" d="M304.185,394.074,276.167,377.1s-15.942,18.1-33.189-2.078L213.4,382.866l4.483,76.213s-6.725,30.261-4.483,35.865-5.6,7.845-3.362,8.966,0,8.966,0,8.966,43.71,22.415,91.9,5.6l-4.483-14.57a11.761,11.761,0,0,0-2.242-11.208s4.483-6.725-1.121-12.329c0,0,2.242-10.087-3.362-14.57l-1.121-15.691,3.362-7.845Z" transform="translate(-152.933 -156.708)" fill="#cfcce0"/>
  <path id="Path_42" data-name="Path 42" d="M246.189,334.952s-2.806,6.073,8.418,3.644c0,0,4.209,2.429,4.209-1.215,0,0,5.612,6.073,7.015,2.429s4.209,1.215,4.209,1.215l2.806-6.073,2.806,3.644h9.821s2.806-24.29-30.866-21.861S237.5,357.649,237.5,357.649s.271-6.908,3.077-3.265S246.189,334.952,246.189,334.952Z" transform="translate(-152.933 -156.708)" fill="#2f2e41"/>
  <path id="Path_43" data-name="Path 43" d="M314.272,438.905l1.121,23.536s4.483,43.71-4.483,62.763v10.087s-2.242,25.778-13.449,24.657,3.362-36.986,3.362-36.986l-2.242-49.314L296.34,445.63Z" transform="translate(-152.933 -156.708)" fill="#ffb9b9"/>
  <path id="Path_44" data-name="Path 44" d="M291.857,395.2l11.18-1.816a54.586,54.586,0,0,1,15.718,28.715c3.362,17.932,4.483,21.295,4.483,21.295l-26.9,6.725-14.57-28.019Z" transform="translate(-152.933 -156.708)" fill="#cfcce0"/>
  <path id="Path_45" data-name="Path 45" d="M244.928,401.835a1.992,1.992,0,0,0-1.99,1.99V555.841a1.992,1.992,0,0,0,1.99,1.99H591.939a1.992,1.992,0,0,0,1.99-1.99V403.824a1.992,1.992,0,0,0-1.99-1.99Z" transform="translate(-152.933 -156.708)" fill="#6c63ff"/>
  <path id="Path_46" data-name="Path 46" d="M544.981,431.825h-253.1a2.388,2.388,0,0,1,0-4.775h253.1a2.388,2.388,0,0,1,0,4.775Z" transform="translate(-152.933 -156.708)" fill="#fff"/>
  <path id="Path_47" data-name="Path 47" d="M544.981,450.927h-253.1a2.388,2.388,0,0,1,0-4.775h253.1a2.388,2.388,0,0,1,0,4.775Z" transform="translate(-152.933 -156.708)" fill="#fff"/>
  <path id="Path_48" data-name="Path 48" d="M544.981,470.029h-253.1a2.388,2.388,0,0,1,0-4.775h253.1a2.388,2.388,0,0,1,0,4.775Z" transform="translate(-152.933 -156.708)" fill="#fff"/>
  <path id="Path_49" data-name="Path 49" d="M544.981,488.986h-253.1a2.388,2.388,0,1,1,0-4.775h253.1a2.388,2.388,0,0,1,0,4.775Z" transform="translate(-152.933 -156.708)" fill="#fff"/>
  <path id="Path_50" data-name="Path 50" d="M544.981,508.087h-253.1a2.388,2.388,0,0,1,0-4.775h253.1a2.388,2.388,0,0,1,0,4.775Z" transform="translate(-152.933 -156.708)" fill="#fff"/>
  <path id="Path_51" data-name="Path 51" d="M480.738,523.982a.682.682,0,0,0-.682.682v18.074a.682.682,0,0,0,.682.682h63.223a.683.683,0,0,0,.682-.682V524.663a.682.682,0,0,0-.682-.682Z" transform="translate(-152.933 -156.708)" fill="#fff"/>
  <path id="Path_52" data-name="Path 52" d="M196.591,425.456s-10.087,42.589,2.242,42.589S240.3,419.852,240.3,419.852s30.261-15.691,17.932-21.295-28.019,8.966-28.019,8.966l-18.1,25.136-.948-12.808Z" transform="translate(-152.933 -156.708)" fill="#ffb9b9"/>
  <path id="Path_53" data-name="Path 53" d="M220.127,389.591l-6.725-6.725s-13.449,7.845-14.57,15.691-6.725,32.5-6.725,32.5l20.734,1.681,6.725-10.087Z" transform="translate(-152.933 -156.708)" fill="#cfcce0"/>
</svg>
