<svg xmlns="http://www.w3.org/2000/svg" xmlns:xlink="http://www.w3.org/1999/xlink" width="655.567" height="503.126" viewBox="0 0 655.567 503.126">
  <defs>
    <linearGradient id="linear-gradient" x1="0.5" y1="1" x2="0.5" gradientUnits="objectBoundingBox">
      <stop offset="0" stop-color="gray" stop-opacity="0.251"/>
      <stop offset="0.54" stop-color="gray" stop-opacity="0.122"/>
      <stop offset="1" stop-color="gray" stop-opacity="0.102"/>
    </linearGradient>
    <linearGradient id="linear-gradient-2" x1="0.503" y1="1" x2="0.503" y2="-0.002" xlink:href="#linear-gradient"/>
    <linearGradient id="linear-gradient-3" x1="0.927" y1="1" x2="0.927" y2="0" xlink:href="#linear-gradient"/>
  </defs>
  <g id="Group_5" data-name="Group 5" transform="translate(0.005 -0.008)">
    <path id="Path_1" data-name="Path 1" d="M112.74,305.6c22.258,28.3,13.611,69.641-.531,102.757-4.739,11.089-10.09,22.814-8.117,34.7,2.441,14.535,15.415,25.168,29.039,30.8a86.43,86.43,0,0,0,77.37-6.375c19.717-12.269,33.84-32.217,53.894-43.923,33.565-19.592,76.284-12.194,112.727,1.3,25.786,9.546,53.976,21.965,79.593,11.988,18.025-7.024,30.487-24.113,37.28-42.231,3.278-8.741,5.657-18.212,11.919-25.149,3.746-4.121,8.579-7.049,13.555-9.515,45.434-22.527,102.813-10.464,146.942-35.445,29.8-16.858,48.881-48.7,57.328-81.891s7.492-67.992,5.32-102.17c-1.523-24.294-4.258-50.223-19.78-68.973-16.421-19.83-44.6-27.209-70.065-23.438S590.66,65.246,570.349,81.067c-25.38,19.78-48.925,44.4-80.086,52.446-21.228,5.457-43.549,2.5-65.439,1.436-36.593-1.729-73.2,2.117-109.593,6.318-34.839,4.027-69.928,8.46-103.119,19.792-23.482,7.992-42.3,22.552-64.477,32.7-14.454,6.631-30.219,8.46-43.911,16.908-16.858,10.4-32.317,28.5-28,49.668C79.837,280.48,100.928,290.576,112.74,305.6Z" transform="translate(-75 -47.08)" fill="#6c63ff" opacity="0.1"/>
    <path id="Path_2" data-name="Path 2" d="M227.747,552.964s-2.06-61.037-35.083-95.526a92.52,92.52,0,0,1-25.374-52.746,155.628,155.628,0,0,1-.774-28.452" transform="translate(-109.258 -170.724)" fill="none" stroke="#535461" stroke-miterlimit="10" stroke-width="2"/>
    <path id="Path_3" data-name="Path 3" d="M133.18,330.97c2.26,6.818,21.153,22.477,21.153,22.477s5.788-23.857,3.528-30.668a13,13,0,0,0-24.681,8.185Z" transform="translate(-96.607 -147.293)" fill="#6c63ff"/>
    <path id="Path_4" data-name="Path 4" d="M118.314,398.83c5.619,4.5,29.969,7.38,29.969,7.38s-8.117-23.17-13.736-27.659a13,13,0,0,0-16.233,20.279Z" transform="translate(-89.595 -170.643)" fill="#6c63ff"/>
    <path id="Path_5" data-name="Path 5" d="M149.97,499.853c7.105,1.049,29.6-8.741,29.6-8.741s-18.693-15.909-25.8-16.957a13,13,0,1,0-3.8,25.723Z" transform="translate(-98.994 -207.452)" fill="#6c63ff"/>
    <path id="Path_6" data-name="Path 6" d="M195.772,571.883c6.824,2.235,30.656-3.634,30.656-3.634s-15.74-18.837-22.564-21.072a13,13,0,1,0-8.117,24.706Z" transform="translate(-116.999 -234.69)" fill="#6c63ff"/>
    <path id="Path_7" data-name="Path 7" d="M196.122,401.287c-3.315,6.368-24.456,18.843-24.456,18.843s-1.923-24.469,1.392-30.843a13,13,0,0,1,23.064,12Z" transform="translate(-111.106 -172.995)" fill="#6c63ff"/>
    <path id="Path_8" data-name="Path 8" d="M244.75,483.935c-5.07,5.089-28.97,10.658-28.97,10.658s5.488-23.925,10.552-29.014a13,13,0,0,1,18.419,18.35Z" transform="translate(-127.885 -202.847)" fill="#6c63ff"/>
    <path id="Path_9" data-name="Path 9" d="M284.384,573.734c-4.133,5.869-26.754,15.4-26.754,15.4s1.361-24.506,5.5-30.381a13,13,0,1,1,21.228,14.985Z" transform="translate(-143.606 -237.085)" fill="#6c63ff"/>
    <path id="Path_10" data-name="Path 10" d="M719.6,592.23s-9.915-3.359-14.685,5.376a15.934,15.934,0,0,0,.212,15.34c3.122,5.663,9.59,13.018,21.852,12.362,10.377-.556,13.8-8.472,14.747-15.84a16.271,16.271,0,0,0-21.609-17.419Z" transform="translate(-310.927 -251.435)" fill="#6c63ff"/>
    <path id="Path_11" data-name="Path 11" d="M707.237,613.568a15.933,15.933,0,0,1-.212-15.34c4.77-8.741,14.685-5.376,14.685-5.376l.506-.181a16.127,16.127,0,0,1,11.65.262,16.133,16.133,0,0,0-13.736-1.311l-.506.181s-9.915-3.359-14.685,5.376a15.934,15.934,0,0,0,.212,15.34,23.7,23.7,0,0,0,11.238,10.614A24.568,24.568,0,0,1,707.237,613.568Z" transform="translate(-310.935 -251.271)" fill="#fff" opacity="0.1"/>
    <path id="Path_12" data-name="Path 12" d="M721.36,599.64s3.677,2.891,12.6,0" transform="translate(-317.803 -254.643)" opacity="0.2"/>
    <path id="Path_13" data-name="Path 13" d="M720.1,566s6.3,17.064,5.775,21.528L730.87,587s-8.4-14.984-6.3-21Z" transform="translate(-317.33 -242.006)" fill="#6c63ff"/>
    <path id="Path_14" data-name="Path 14" d="M720.1,566s6.3,17.064,5.775,21.528L730.87,587s-8.4-14.984-6.3-21Z" transform="translate(-317.33 -242.006)" opacity="0.2"/>
    <path id="Path_15" data-name="Path 15" d="M749.57,566.753s-9.915-5.07-14.36-.88-5.12,14.9-5.12,14.9S746.267,582.992,749.57,566.753Z" transform="translate(-321.083 -241.335)" fill="#6c63ff"/>
    <path id="Path_16" data-name="Path 16" d="M749.57,566.753s-9.915-5.07-14.36-.88-5.12,14.9-5.12,14.9S746.267,582.992,749.57,566.753Z" transform="translate(-321.083 -241.335)" fill="#fff" opacity="0.1"/>
    <path id="Path_17" data-name="Path 17" d="M730.1,582.3s2.6-12.431,19.474-14.017" transform="translate(-321.086 -242.863)" fill="none" stroke="#6c63ff" stroke-miterlimit="10" stroke-width="1"/>
    <path id="Path_18" data-name="Path 18" d="M258.59,412.392s2.023-33-14-53.283a50.1,50.1,0,0,1-10.97-29.732A84.289,84.289,0,0,1,234.665,314" transform="translate(-134.576 -147.344)" fill="none" stroke="#535461" stroke-miterlimit="10" stroke-width="2"/>
    <path id="Path_19" data-name="Path 19" d="M219.146,288.251c.868,3.79,10.246,13.205,10.246,13.205s4.371-12.562,3.478-16.346a7.043,7.043,0,1,0-13.736,3.122Z" transform="translate(-129.079 -134.432)" fill="#6c63ff"/>
    <path id="Path_20" data-name="Path 20" d="M207.516,323.952c2.791,2.71,15.777,5.519,15.777,5.519s-3.178-12.905-5.969-15.609a7.038,7.038,0,0,0-9.809,10.1Z" transform="translate(-123.979 -146.545)" fill="#6c63ff"/>
    <path id="Path_21" data-name="Path 21" d="M219.529,380.143c3.746.93,16.4-3.2,16.4-3.2s-9.259-9.534-13.03-10.464a7.038,7.038,0,0,0-3.372,13.667Z" transform="translate(-127.282 -166.979)" fill="#6c63ff"/>
    <path id="Path_22" data-name="Path 22" d="M240.523,421.33c3.565,1.555,16.708-.387,16.708-.387s-7.492-10.964-11.076-12.487a7.036,7.036,0,1,0-5.62,12.9Z" transform="translate(-135.596 -182.605)" fill="#6c63ff"/>
    <path id="Path_23" data-name="Path 23" d="M248.9,329.412c-2.11,3.265-14.148,8.9-14.148,8.9s.219-13.286,2.335-16.552a7.038,7.038,0,0,1,11.813,7.655Z" transform="translate(-135.011 -149.052)" fill="#6c63ff"/>
    <path id="Path_24" data-name="Path 24" d="M270.835,376.644c-2.991,2.5-16.165,4.258-16.165,4.258s4.183-12.612,7.18-15.1a7.039,7.039,0,0,1,8.984,10.839Z" transform="translate(-142.494 -166.196)" fill="#6c63ff"/>
    <path id="Path_25" data-name="Path 25" d="M287.479,427.081c-2.529,2.953-15.209,6.93-15.209,6.93s1.992-13.111,4.527-16.09a7.04,7.04,0,1,1,10.689,9.166Z" transform="translate(-149.105 -185.458)" fill="#6c63ff"/>
    <path id="Path_26" data-name="Path 26" d="M219.146,288.251c.868,3.79,10.246,13.205,10.246,13.205s4.371-12.562,3.478-16.346a7.043,7.043,0,1,0-13.736,3.122Z" transform="translate(-129.079 -134.432)" fill="#fff" opacity="0.5"/>
    <path id="Path_27" data-name="Path 27" d="M207.516,323.952c2.791,2.71,15.777,5.519,15.777,5.519s-3.178-12.905-5.969-15.609a7.038,7.038,0,0,0-9.809,10.1Z" transform="translate(-123.979 -146.545)" fill="#fff" opacity="0.5"/>
    <path id="Path_28" data-name="Path 28" d="M219.529,380.143c3.746.93,16.4-3.2,16.4-3.2s-9.259-9.534-13.03-10.464a7.038,7.038,0,0,0-3.372,13.667Z" transform="translate(-127.282 -166.979)" fill="#fff" opacity="0.5"/>
    <path id="Path_29" data-name="Path 29" d="M240.523,421.33c3.565,1.555,16.708-.387,16.708-.387s-7.492-10.964-11.076-12.487a7.036,7.036,0,1,0-5.62,12.9Z" transform="translate(-135.596 -182.605)" fill="#fff" opacity="0.5"/>
    <path id="Path_30" data-name="Path 30" d="M248.9,329.412c-2.11,3.265-14.148,8.9-14.148,8.9s.219-13.286,2.335-16.552a7.038,7.038,0,0,1,11.813,7.655Z" transform="translate(-135.011 -149.052)" fill="#fff" opacity="0.5"/>
    <path id="Path_31" data-name="Path 31" d="M270.835,376.644c-2.991,2.5-16.165,4.258-16.165,4.258s4.183-12.612,7.18-15.1a7.039,7.039,0,0,1,8.984,10.839Z" transform="translate(-142.494 -166.196)" fill="#fff" opacity="0.5"/>
    <path id="Path_32" data-name="Path 32" d="M287.479,427.081c-2.529,2.953-15.209,6.93-15.209,6.93s1.992-13.111,4.527-16.09a7.04,7.04,0,1,1,10.689,9.166Z" transform="translate(-149.105 -185.458)" fill="#fff" opacity="0.5"/>
    <path id="Path_33" data-name="Path 33" d="M504.5,20.39V235.143H819.75V20.39Z" transform="translate(-189.514 -7.656)" fill="url(#linear-gradient)"/>
    <rect id="Rectangle_3" data-name="Rectangle 3" width="307.233" height="201.124" transform="translate(319.662 22.474)" fill="#fff"/>
    <rect id="Rectangle_4" data-name="Rectangle 4" width="307.233" height="14.797" transform="translate(319.662 12.908)" fill="#eee"/>
    <circle id="Ellipse_1" data-name="Ellipse 1" cx="3.59" cy="3.59" r="3.59" transform="translate(327.76 16.492)" fill="#ff5252"/>
    <circle id="Ellipse_2" data-name="Ellipse 2" cx="3.59" cy="3.59" r="3.59" transform="translate(337.631 16.492)" fill="#ff0"/>
    <circle id="Ellipse_3" data-name="Ellipse 3" cx="3.59" cy="3.59" r="3.59" transform="translate(347.496 16.492)" fill="#69f0ae"/>
    <rect id="Rectangle_5" data-name="Rectangle 5" width="114.488" height="4.77" transform="translate(331.437 51.406)" fill="#6c63ff" opacity="0.5"/>
    <rect id="Rectangle_6" data-name="Rectangle 6" width="114.488" height="4.77" transform="translate(331.437 60.946)" fill="#6c63ff" opacity="0.5"/>
    <rect id="Rectangle_7" data-name="Rectangle 7" width="114.488" height="4.77" transform="translate(331.437 70.487)" fill="#6c63ff" opacity="0.5"/>
    <rect id="Rectangle_8" data-name="Rectangle 8" width="75.023" height="4.77" transform="translate(370.897 80.027)" fill="#6c63ff" opacity="0.5"/>
    <rect id="Rectangle_9" data-name="Rectangle 9" width="60.282" height="4.77" transform="translate(331.437 89.573)" fill="#6c63ff" opacity="0.5"/>
    <rect id="Rectangle_10" data-name="Rectangle 10" width="46.402" height="4.77" transform="translate(363.96 99.113)" fill="#6c63ff" opacity="0.5"/>
    <rect id="Rectangle_11" data-name="Rectangle 11" width="134.873" height="77.626" transform="translate(461.104 84.803)" fill="#6c63ff" opacity="0.5"/>
    <rect id="Rectangle_12" data-name="Rectangle 12" width="134.873" height="77.626" transform="translate(477.149 92.17)" fill="#eee"/>
    <path id="Path_34" data-name="Path 34" d="M914.69,306.4H839.23v-14.2C857.667,283.591,886.032,278.752,914.69,306.4Z" transform="translate(-362.081 -136.627)" fill="#6c63ff"/>
    <g id="Group_1" data-name="Group 1" transform="translate(517.046 148.841)" opacity="0.1">
      <path id="Path_35" data-name="Path 35" d="M997.239,304.393v2.01H903.13v-.431S949.438,260.907,997.239,304.393Z" transform="translate(-903.13 -285.467)"/>
    </g>
    <path id="Path_36" data-name="Path 36" d="M998.629,304.393v2.01H904.52v-.431S950.828,260.907,998.629,304.393Z" transform="translate(-386.606 -136.626)" fill="#6c63ff"/>
    <circle id="Ellipse_4" data-name="Ellipse 4" cx="6.937" cy="6.937" r="6.937" transform="translate(485.828 99.113)" fill="#6c63ff"/>
    <path id="Path_37" data-name="Path 37" d="M954.545,208.386c-.793,0-1.68,0-2.279.05a2.771,2.771,0,0,0-.793.162l-4.083,1.467c3.3.081,6.737.056,10.108,0l18.943-.144c1.929,0,3.965-.031,5.576-.15,1.08-.075,1.873-.194,2.866-.281,3.584-.318,8.816-.256,13.486-.243s10.308-.106,11.95-.574H1000.3c-1.08,0-2.216,0-3.172-.056-1.118-.062-1.8-.187-2.778-.275-1.623-.137-3.859-.156-5.944-.162C976.991,208.174,965.709,208.448,954.545,208.386Z" transform="translate(-402.71 -107.593)" fill="#f4f4f4"/>
    <path id="Path_38" data-name="Path 38" d="M975.928,221.976h-.493a.624.624,0,0,0-.169.037l-.887.318h2.191l4.1-.031c.418,0,.855,0,1.205-.031l.624-.062c.774-.069,1.911-.056,2.922-.05a15.922,15.922,0,0,0,2.591-.125h-2.86c-.206,0-.387-.044-.624-.056-.35,0-.837-.031-1.286-.037C980.786,221.926,978.345,221.976,975.928,221.976Z" transform="translate(-412.849 -112.761)" fill="#f4f4f4"/>
    <path id="Path_39" data-name="Path 39" d="M929.388,241.417H928.9a.624.624,0,0,0-.169.037l-.887.318h2.191l4.1-.031c.418,0,.855,0,1.2-.031l.624-.062c.774-.069,1.911-.056,2.922-.05a15.919,15.919,0,0,0,2.591-.125h-2.859c-.206,0-.387-.044-.624-.056-.35,0-.837-.031-1.286-.037C934.252,241.373,931.8,241.43,929.388,241.417Z" transform="translate(-395.366 -120.064)" fill="#f4f4f4"/>
    <path id="Path_40" data-name="Path 40" d="M902.171,284.791h-3.234s-1.018-35.663,3.259-46.671h.818S900.135,278.478,902.171,284.791Z" transform="translate(-384.469 -118.84)" fill="#6c63ff"/>
    <path id="Path_41" data-name="Path 41" d="M894.219,224.413s-2.647,7.336-1.423,10.614c0,0,1.836-6.724,3.977-7.742s4.371,7.742,4.371,7.742,1.249-5.5-1.018-9.99a17.719,17.719,0,0,1,6.724,7.13s.406-3.059-4.889-9.365a21.083,21.083,0,0,1,7.742,4.077s1.018-2.241-5.3-5.913c0,0,.818-2.647,5.707-1.424,0,0,0-3.465-7.742-2.853,0,0,0-2.241,5.095-1.836,0,0,0-2.853-5.913-1.836a9.519,9.519,0,0,1,2.035-2.241,4.1,4.1,0,0,0-2.853.818s.206-3.671-2.853-5.095l-.406,5.095s-3.428-4.04-2.647-3.259a8.942,8.942,0,0,1,.624,3.871,6.348,6.348,0,0,0-7.742.206s5.3.406,6.112,2.241c0,0-4.483-.818-5.5-.206,0,0,3.465,1.249,3.259,2.035,0,0-6.112,0-6.93,2.241,0,0,6.318.818,6.724,1.424,0,0-7.336,5.3-7.742,6.724,0,0,7.542-4.483,8.741-4.483s-5.5,6.525-5.095,8.154C887.295,230.538,892.8,224,894.219,224.413Z" transform="translate(-378.759 -106.962)" fill="#6c63ff"/>
    <path id="Path_42" data-name="Path 42" d="M968.234,289.287h2.5s.78-27.247-2.5-35.657h-.624S969.789,284.454,968.234,289.287Z" transform="translate(-410.306 -124.666)" fill="#6c63ff"/>
    <path id="Path_43" data-name="Path 43" d="M964.044,243.161s2.023,5.619,1.093,8.117c0,0-1.4-5.138-3.034-5.919s-3.347,5.919-3.347,5.919a12.976,12.976,0,0,1,.781-7.63A13.535,13.535,0,0,0,954.4,249.1s-.312-2.335,3.746-7.161a15.78,15.78,0,0,0-5.919,3.122s-.781-1.711,4.046-4.514c0,0-.624-2.023-4.37-1.093,0,0,0-2.647,5.919-2.179,0,0,0-1.711-3.89-1.4,0,0,0-2.179,4.514-1.4a6.869,6.869,0,0,0-1.555-1.711,3.121,3.121,0,0,1,2.179.624s-.156-2.8,2.179-3.89l.312,3.89s2.616-3.084,2.023-2.5a6.83,6.83,0,0,0-.468,2.959,4.857,4.857,0,0,1,5.919.156s-4.046.312-4.67,1.711c0,0,3.428-.624,4.2-.156,0,0-2.647.937-2.5,1.555,0,0,4.67,0,5.294,1.711,0,0-4.826.624-5.138,1.093,0,0,5.619,4.046,5.919,5.138,0,0-5.763-3.428-6.693-3.428s4.2,4.995,3.89,6.244C969.338,247.831,965.136,242.849,964.044,243.161Z" transform="translate(-404.404 -115.602)" fill="#6c63ff"/>
    <path id="Path_44" data-name="Path 44" d="M1016.117,288.923h1.542s.481-16.858-1.542-22.083h-.387S1017.079,285.933,1016.117,288.923Z" transform="translate(-428.382 -129.629)" fill="#6c63ff"/>
    <path id="Path_45" data-name="Path 45" d="M1013.474,260.337s1.249,3.471.674,4.995c0,0-.868-3.184-1.873-3.665s-2.073,3.665-2.073,3.665a8.054,8.054,0,0,1,.481-4.726,8.385,8.385,0,0,0-3.184,3.378s-.194-1.449,2.316-4.433a9.784,9.784,0,0,0-3.665,1.929s-.481-1.061,2.5-2.8c0,0-.387-1.249-2.7-.674,0,0,0-1.642,3.665-1.349,0,0,0-1.061-2.41-.868,0,0,0-1.349,2.8-.868a4.243,4.243,0,0,0-.961-1.061,1.941,1.941,0,0,1,1.349.387,2.61,2.61,0,0,1,1.349-2.41l.194,2.41s1.623-1.911,1.249-1.542a4.228,4.228,0,0,0-.287,1.829,3,3,0,0,1,3.665.094s-2.5.194-2.891,1.061c0,0,2.123-.387,2.6-.094,0,0-1.642.581-1.542.962,0,0,2.891,0,3.278,1.061,0,0-2.991.387-3.184.674,0,0,3.471,2.5,3.665,3.184,0,0-3.565-2.123-4.146-2.123s2.6,3.084,2.41,3.859C1016.783,263.228,1014.179,260.144,1013.474,260.337Z" transform="translate(-424.708 -123.994)" fill="#6c63ff"/>
    <path id="Path_46" data-name="Path 46" d="M920.721,267.347h0l-.325-1.736a.943.943,0,0,0-.293-.681l-1.5-.737h0a1.7,1.7,0,0,1-.268-.45v-.037a.9.9,0,0,0,.175-.356.621.621,0,0,0,0-.1h0a.556.556,0,0,0,.624-.45v-.037a.556.556,0,0,1-.506.418,1.536,1.536,0,0,0,.681-1.249v-.062a.556.556,0,0,0,.256-.375v-.037a.555.555,0,0,1-.268.35,1.531,1.531,0,0,0-.094-.418h.037a.556.556,0,0,0,.556-.556V260.8a.556.556,0,0,1-.556.518h-.069a.912.912,0,0,0,.624-.743s0,0,0-.037a.555.555,0,0,1-.112.3.559.559,0,0,0-1.105-.162l-.1-.056a.556.556,0,0,1,.506-.406h-.037a.556.556,0,0,0-.537.375,1.536,1.536,0,0,0-1.936.556c-.119.087-.268.212-.262.318a1.061,1.061,0,0,0-.131.162,2.131,2.131,0,0,0-.175,1.155,1.249,1.249,0,0,1-.4,1.061.531.531,0,0,0,.412,0,1.568,1.568,0,0,0,.362-.212.806.806,0,0,0,.256-.244h0a1.249,1.249,0,0,0,.231.119c.031.262.037.562-.075.656h0v-.05a1.411,1.411,0,0,1-.98.281,1.249,1.249,0,0,0-1.011.624l-.468,2h0v.031h0v.031h0a.15.15,0,0,0,.112.112l.144.037a3.057,3.057,0,0,1-.006.962,8.565,8.565,0,0,0-.169,1.473c.037.25.1,1.536.125,2.148q-.078.309-.125.624l-.7,4.189s-.518,3.353-.493,4.37l-.094.587s-1.417,1.779-1,2.029,1.055.362,1.667-.587a1.529,1.529,0,0,1,.387-.587.575.575,0,0,0,.194-.487l-.044-.412h.119a14.47,14.47,0,0,0,.624-3.9s1.292-4.608,2.279-5.332h0l.094-.044.212,4.458-.212,4.92-.044.293s-1.417,1.779-1,2.029,1.055.362,1.667-.587a1.529,1.529,0,0,1,.387-.587.574.574,0,0,0,.194-.487l-.062-.624a12.748,12.748,0,0,0,.624-4.6l.431-2.941a3.1,3.1,0,0,0,.375-1.729,15.951,15.951,0,0,0,.418-3.521l.087-1.386h.262l.031-.037h0v-.031h0Zm-1.211,2.816a2.935,2.935,0,0,0-.131-.287h-.037v-.106a1.193,1.193,0,0,0,.05-.144.542.542,0,0,0,.081-.3,2.834,2.834,0,0,1,.062.837Zm-.131-1.186-.087-.93v-.075l.119,1.18Zm-4.115.125a.325.325,0,0,0-.075.25h0a1.055,1.055,0,0,0,.037.281l-.137.581V269.1a2.453,2.453,0,0,0,.231-.375.624.624,0,0,1-.025.375Z" transform="translate(-389.396 -127.132)" fill="url(#linear-gradient-2)"/>
    <path id="Path_47" data-name="Path 47" d="M918.376,262.769a2.047,2.047,0,0,0-.169,1.111,1.18,1.18,0,0,1-.387,1.024.512.512,0,0,0,.393,0,1.51,1.51,0,0,0,.35-.206.775.775,0,0,0,.244-.237.924.924,0,0,0,.056-.475,5,5,0,0,1,.075-.843c0-.175.194-.624,0-.737S918.463,262.631,918.376,262.769Z" transform="translate(-391.602 -127.955)" fill="#72351c"/>
    <path id="Path_48" data-name="Path 48" d="M913.417,292.446l-.131.855s-1.367,1.717-.961,1.954,1.018.35,1.6-.562a1.473,1.473,0,0,1,.375-.562h0a.555.555,0,0,0,.187-.468l-.131-1.324Z" transform="translate(-389.51 -139.207)" fill="#333"/>
    <path id="Path_49" data-name="Path 49" d="M920.007,293l-.131.855s-1.367,1.717-.962,1.954,1.018.35,1.6-.562a1.473,1.473,0,0,1,.375-.562h0a.556.556,0,0,0,.187-.468l-.131-1.324Z" transform="translate(-391.985 -139.414)" fill="#333"/>
    <path id="Path_50" data-name="Path 50" d="M916.087,276.225a3.234,3.234,0,0,0-.88,2.079l-.674,4.033a35.593,35.593,0,0,0-.462,4.37l1.136.387a13.94,13.94,0,0,0,.624-3.746s1.367-4.864,2.323-5.207l.2,4.3-.212,4.845.974.194s.986-3.078.674-4.708l.506-3.465a5.132,5.132,0,0,0-.225-3.453Z" transform="translate(-390.194 -133.013)" fill="#4d8af0"/>
    <g id="Group_2" data-name="Group 2" transform="translate(524.938 142.824)" opacity="0.1">
      <path id="Path_51" data-name="Path 51" d="M918.679,279.575V279.5c-.955.343-2.323,5.207-2.323,5.207a13.665,13.665,0,0,1-.587,3.709l.125.044a13.945,13.945,0,0,0,.624-3.746S917.73,280.274,918.679,279.575Z" transform="translate(-915.77 -277.209)"/>
      <path id="Path_52" data-name="Path 52" d="M923.06,275.83h-.131a5.139,5.139,0,0,1,.219,3.44l-.506,3.465c.3,1.542-.574,4.37-.662,4.683h.125s.986-3.078.674-4.708l.506-3.465a5.133,5.133,0,0,0-.225-3.415Z" transform="translate(-918.103 -275.83)"/>
    </g>
    <path id="Path_53" data-name="Path 53" d="M915.9,271.274a.144.144,0,0,0,.112.144,2.248,2.248,0,0,1,.862.412c.481.375-.506-.749-.506-.749l-.331.075Z" transform="translate(-390.881 -131.221)" fill="#f55f44"/>
    <path id="Path_54" data-name="Path 54" d="M915.9,271.274a.144.144,0,0,0,.112.144,2.248,2.248,0,0,1,.862.412c.481.375-.506-.749-.506-.749l-.331.075Z" transform="translate(-390.881 -131.221)" opacity="0.1"/>
    <path id="Path_55" data-name="Path 55" d="M923.42,272.543a3.016,3.016,0,0,1,1.355-.537.125.125,0,0,0,.125-.125h0a1.08,1.08,0,0,0-1.48.662Z" transform="translate(-393.706 -131.486)" fill="#f55f44"/>
    <path id="Path_56" data-name="Path 56" d="M924.9,271.851a1.08,1.08,0,0,0-1.48.662,2.554,2.554,0,0,1,1.417-.537" transform="translate(-393.706 -131.474)" opacity="0.1"/>
    <circle id="Ellipse_5" data-name="Ellipse 5" cx="1.48" cy="1.48" r="1.48" transform="translate(526.917 133.671)" fill="#72351c"/>
    <path id="Path_57" data-name="Path 57" d="M919.414,264.727s.212.868,0,1.049-.624.506-.312.762,1.448.687,1.823.481.805-.15.706-.581-.924-.343-.943-2.5Z" transform="translate(-392.042 -128.539)" fill="#fdb797"/>
    <path id="Path_58" data-name="Path 58" d="M916.17,271a5.414,5.414,0,0,1-.087,1.4,8.243,8.243,0,0,0-.162,1.417c.044.312.137,2.379.137,2.379s-.162,1.811.718,1.642-.137-2.06-.137-2.06l.044-2.5a2.3,2.3,0,0,0,.45-1.105C917.169,271.624,916.17,271,916.17,271Z" transform="translate(-390.889 -131.191)" opacity="0.1"/>
    <path id="Path_59" data-name="Path 59" d="M916.14,271a5.406,5.406,0,0,1-.087,1.4,8.243,8.243,0,0,0-.162,1.417c.044.312.137,2.379.137,2.379s-.162,1.811.718,1.642-.137-2.06-.137-2.06l.044-2.5a2.3,2.3,0,0,0,.45-1.105C917.145,271.624,916.14,271,916.14,271Z" transform="translate(-390.877 -131.191)" fill="#fdb797"/>
    <path id="Path_60" data-name="Path 60" d="M924.313,271.19l-.119,1.929a15.39,15.39,0,0,1-.406,3.39s.087,1.873-.793,1.873.15-2.079.15-2.079a8.514,8.514,0,0,0,.231-2.785l-.231-2.316Z" transform="translate(-393.413 -131.263)" opacity="0.1"/>
    <path id="Path_61" data-name="Path 61" d="M924.333,271.19l-.119,1.929a15.389,15.389,0,0,1-.406,3.39s.087,1.873-.793,1.873.15-2.079.15-2.079a8.513,8.513,0,0,0,.231-2.785l-.231-2.316Z" transform="translate(-393.42 -131.263)" fill="#fdb797"/>
    <path id="Path_62" data-name="Path 62" d="M918.906,267.739s.712.331,1.105-.624l1.455.712a.905.905,0,0,1,.281.656l.312,1.673a1.068,1.068,0,0,0-1.392.624l.087.943h0a1.012,1.012,0,0,1-.044.706.156.156,0,0,0,0,.125.462.462,0,0,1-.418.624,8.813,8.813,0,0,0-1.168.087c-.312.087-1.249-.181-1.567,0s-.974-.137-.974-.137l.181-.762s-.119-.375,0-.506a3.253,3.253,0,0,0-.075-1.63s-.537-.506-.849-.418l.45-1.929a1.174,1.174,0,0,1,.974-.624,1.361,1.361,0,0,0,.943-.268S917.857,267.621,918.906,267.739Z" transform="translate(-390.859 -129.685)" opacity="0.1"/>
    <path id="Path_63" data-name="Path 63" d="M919,267.663c.194.05.718.112,1.03-.674l1.455.712a.905.905,0,0,1,.281.656l.312,1.673a1.068,1.068,0,0,0-1.392.624l.087.943.056.187a.531.531,0,0,1-.075.475.169.169,0,0,0,0,.175.462.462,0,0,1-.418.624,8.813,8.813,0,0,0-1.168.087c-.312.087-1.249-.181-1.567,0s-.974-.137-.974-.137l.181-.762s-.119-.375,0-.506a3.252,3.252,0,0,0-.075-1.63s-.537-.506-.849-.418l.449-1.929a1.174,1.174,0,0,1,.974-.624,1.361,1.361,0,0,0,.943-.268s-.35.624.574.78Z" transform="translate(-390.874 -129.64)" opacity="0.1"/>
    <path id="Path_64" data-name="Path 64" d="M918.981,267.709c.194.05.718.112,1.03-.674l1.455.712a.905.905,0,0,1,.281.656l.312,1.673a1.068,1.068,0,0,0-1.392.624l.087.943h0a1.012,1.012,0,0,1-.044.706.156.156,0,0,0,0,.125.462.462,0,0,1-.418.624,8.813,8.813,0,0,0-1.168.087c-.312.087-1.249-.181-1.567,0s-.974-.137-.974-.137l.181-.762s-.119-.375,0-.506a3.253,3.253,0,0,0-.075-1.63s-.537-.506-.849-.418l.45-1.929a1.174,1.174,0,0,1,.974-.624,1.361,1.361,0,0,0,.943-.268s-.35.624.574.78Z" transform="translate(-390.859 -129.655)" fill="#f55f44"/>
    <path id="Path_65" data-name="Path 65" d="M921,264.05l-1.249.793a4.1,4.1,0,0,1,.075.412,1.25,1.25,0,0,0,.456.087,1.28,1.28,0,0,0,.824-.375A4.948,4.948,0,0,1,921,264.05Z" transform="translate(-392.327 -128.581)" opacity="0.1"/>
    <circle id="Ellipse_6" data-name="Ellipse 6" cx="1.224" cy="1.224" r="1.224" transform="translate(526.68 134.24)" fill="#fdb797"/>
    <circle id="Ellipse_7" data-name="Ellipse 7" cx="0.537" cy="0.537" r="0.537" transform="translate(529.177 133.447)" fill="#72351c"/>
    <path id="Path_66" data-name="Path 66" d="M923.257,262.279a.537.537,0,0,1-.537-.5v.037a.537.537,0,1,0,1.074,0v-.037A.537.537,0,0,1,923.257,262.279Z" transform="translate(-393.443 -127.728)" fill="#72351c"/>
    <path id="Path_67" data-name="Path 67" d="M922.822,263.087a.537.537,0,0,1-.437-.587v.037a.539.539,0,0,0,1.061.194v-.037A.537.537,0,0,1,922.822,263.087Z" transform="translate(-393.314 -127.998)" fill="#72351c"/>
    <path id="Path_68" data-name="Path 68" d="M922.152,265.147a.537.537,0,0,1-.437-.587v.037a.539.539,0,1,0,1.061.194v-.037A.537.537,0,0,1,922.152,265.147Z" transform="translate(-393.062 -128.772)" fill="#72351c"/>
    <path id="Path_69" data-name="Path 69" d="M923.257,261.829a.537.537,0,0,1-.537-.5v.037a.537.537,0,1,0,1.074,0v-.037A.537.537,0,0,1,923.257,261.829Z" transform="translate(-393.443 -127.559)" fill="#72351c"/>
    <path id="Path_70" data-name="Path 70" d="M922.339,261.341a.537.537,0,0,1,.506-.531h-.037a.537.537,0,1,0,0,1.074h.037a.537.537,0,0,1-.506-.543Z" transform="translate(-393.274 -127.363)" fill="#72351c"/>
    <path id="Path_71" data-name="Path 71" d="M923.236,269.79a1.934,1.934,0,0,1,0,.805s-.075.706.044.824" transform="translate(-393.628 -130.737)" opacity="0.1"/>
    <path id="Path_72" data-name="Path 72" d="M917.416,270a1.934,1.934,0,0,1,0,.805s-.075.706.044.824" transform="translate(-391.442 -130.816)" opacity="0.1"/>
    <path id="Path_73" data-name="Path 73" d="M917.38,274.651a.537.537,0,0,0,.356,0,.749.749,0,0,1,.431,0" transform="translate(-391.437 -132.551)" opacity="0.1"/>
    <path id="Path_74" data-name="Path 74" d="M917.67,272.884a3.122,3.122,0,0,0,1.249-.194s1.523.375,1.96.106" transform="translate(-391.546 -131.826)" opacity="0.1"/>
    <rect id="Rectangle_13" data-name="Rectangle 13" width="0.943" height="0.581" rx="0.29" transform="translate(525.019 147.482)" fill="#fdb797"/>
    <path id="Path_75" data-name="Path 75" d="M915.9,283.53h.506l.437.069h-.156Z" transform="translate(-390.881 -135.898)" fill="#f0e4e4"/>
    <path id="Path_76" data-name="Path 76" d="M921.33,279.65h.506l.437.044h-.156Z" transform="translate(-392.921 -134.441)" fill="#f0e4e4"/>
    <path id="Path_77" data-name="Path 77" d="M921.33,279.82h.506l.437.044h-.156Z" transform="translate(-392.921 -134.504)" fill="#f0e4e4"/>
    <path id="Path_78" data-name="Path 78" d="M921.33,280h.506l.437.044h-.156Z" transform="translate(-392.921 -134.572)" fill="#f0e4e4"/>
    <path id="Path_79" data-name="Path 79" d="M921.33,280.15h.506l.437.044h-.156Z" transform="translate(-392.921 -134.628)" fill="#f0e4e4"/>
    <path id="Path_80" data-name="Path 80" d="M915.9,284.19h.506l.437.05h-.156Z" transform="translate(-390.881 -136.146)" fill="#f0e4e4"/>
    <path id="Path_81" data-name="Path 81" d="M915.9,284.11h.506l.437.05h-.156Z" transform="translate(-390.881 -136.116)" fill="#f0e4e4"/>
    <path id="Path_82" data-name="Path 82" d="M915.9,284h.506l.437.05h-.156Z" transform="translate(-390.881 -136.075)" fill="#f0e4e4"/>
    <path id="Path_83" data-name="Path 83" d="M915.9,283.94h.506l.437.05h-.156Z" transform="translate(-390.881 -136.052)" fill="#f0e4e4"/>
    <path id="Path_84" data-name="Path 84" d="M915.9,283.42h.506l.437.069h-.156Z" transform="translate(-390.881 -135.857)" fill="#f0e4e4"/>
    <path id="Path_85" data-name="Path 85" d="M915.9,283.28h.506l.437.069h-.156Z" transform="translate(-390.881 -135.804)" fill="#f0e4e4"/>
    <path id="Path_86" data-name="Path 86" d="M920.84,262.439a2.966,2.966,0,0,0,.169,1.349,1.611,1.611,0,0,1-.075,1.286.424.424,0,0,0,.381-.094,1.477,1.477,0,0,0,.275-.325.867.867,0,0,0,.169-.337,1.343,1.343,0,0,0-.088-.568,7.361,7.361,0,0,1-.181-1.011c0-.206,0-.805-.231-.862S920.884,262.264,920.84,262.439Z" transform="translate(-392.73 -127.762)" opacity="0.1"/>
    <path id="Path_87" data-name="Path 87" d="M920.89,262.426a2.967,2.967,0,0,0,.169,1.349,1.611,1.611,0,0,1-.069,1.3.425.425,0,0,0,.381-.094,1.478,1.478,0,0,0,.275-.325.867.867,0,0,0,.169-.337,1.343,1.343,0,0,0-.087-.568,7.343,7.343,0,0,1-.181-1.011c0-.206,0-.805-.231-.862S920.952,262.252,920.89,262.426Z" transform="translate(-392.749 -127.762)" fill="#72351c"/>
    <path id="Path_88" data-name="Path 88" d="M919.621,262.6c.1.106.125.268.212.393a.768.768,0,0,0,.624.244.343.343,0,0,1,.175.037c.094.062.1.2.162.293a.343.343,0,0,0,.512,0,.837.837,0,0,0,.15-.512,3.344,3.344,0,0,0,0-.624.993.993,0,0,0-.275-.662,1.149,1.149,0,0,0-.481-.206,1.424,1.424,0,0,0-.743-.056,1.335,1.335,0,0,0-.337.169l-.437.293c-.162.112-.462.337-.169.462C919.228,262.472,919.465,262.429,919.621,262.6Z" transform="translate(-392.005 -127.615)" opacity="0.1"/>
    <path id="Path_89" data-name="Path 89" d="M919.7,262.562c.1.106.125.268.212.393a.768.768,0,0,0,.624.243.344.344,0,0,1,.175.037c.094.062.1.2.162.293a.343.343,0,0,0,.512,0,.836.836,0,0,0,.194-.537,3.345,3.345,0,0,0,0-.624.993.993,0,0,0-.275-.662,1.149,1.149,0,0,0-.481-.206,1.424,1.424,0,0,0-.743-.056,1.337,1.337,0,0,0-.337.169l-.437.293c-.162.112-.462.337-.169.462A1.051,1.051,0,0,1,919.7,262.562Z" transform="translate(-392.05 -127.592)" fill="#72351c"/>
    <path id="Path_90" data-name="Path 90" d="M921.38,279.65h.506l.437.044h-.156Z" transform="translate(-392.94 -134.441)" fill="#f0e4e4"/>
    <path id="Path_91" data-name="Path 91" d="M921.38,279.82h.506l.437.044h-.156Z" transform="translate(-392.94 -134.504)" fill="#f0e4e4"/>
    <path id="Path_92" data-name="Path 92" d="M921.38,280h.506l.437.044h-.156Z" transform="translate(-392.94 -134.572)" fill="#f0e4e4"/>
    <path id="Path_93" data-name="Path 93" d="M921.38,280.15h.506l.437.044h-.156Z" transform="translate(-392.94 -134.628)" fill="#f0e4e4"/>
    <path id="Path_94" data-name="Path 94" d="M921,289.38h.506l.437.044h-.156Z" transform="translate(-392.797 -138.096)" fill="#f0e4e4"/>
    <path id="Path_95" data-name="Path 95" d="M921,289.54h.506l.437.044h-.156Z" transform="translate(-392.797 -138.156)" fill="#f0e4e4"/>
    <path id="Path_96" data-name="Path 96" d="M921,289.71h.506l.437.044h-.156Z" transform="translate(-392.797 -138.22)" fill="#f0e4e4"/>
    <path id="Path_97" data-name="Path 97" d="M921,289.88h.506l.437.044h-.156Z" transform="translate(-392.797 -138.283)" fill="#f0e4e4"/>
    <path id="Path_98" data-name="Path 98" d="M437.5,724.927H387.84V696.95H437.5Zm-47.563-2.1h45.453V699.048H389.938Z" transform="translate(-192.518 -291.197)" fill="#6c63ff" opacity="0.2"/>
    <path id="Path_99" data-name="Path 99" d="M294.131,504.08c3.122,1.823,6.412,2.566,9.815,1.436a15.222,15.222,0,0,0,2.554-1.13c31.842.674,61.331.362,62.473-3.066,1.873-5.682-9.99-33.665-15.977-47.189a15.16,15.16,0,0,0,4.37-4.564c8.316,9.509,23.788,21.778,32.985,22.389,0,0,13.424,31.886,28.527,26.847s16.783-31.886,9.228-35.239L377.764,431.68V378.772a19.817,19.817,0,0,0,2.1-9.8c0-.624.031-1.249,0-1.873l-1.68-15.1s-.087-.5-.318-1.4c-3.746-14.554-12.094-24.35-23.863-25.8a8.6,8.6,0,0,0,1.024-3.39c.243-2.822-.93-5.7-.268-8.454.774-3.209,3.746-5.282,6.187-7.492,5.213-4.77,8.5-11.238,11.669-17.551,3.022-6.013,6.087-12.181,6.868-18.862s-1.249-14.1-6.712-18.031c-4.246-3.066-10.221-3.871-13.274-8.117-1.367-1.911-1.936-4.264-2.878-6.412-2.716-6.187-8.572-10.577-14.928-12.868-22.3-8.029-49.661,1.186-63.89,19.7-4.645,6.044-8,12.962-11.313,19.823L254.5,287.916c-2.067,4.264-4.065,9.59-1.3,13.442,1.349,1.873,3.659,3.034,4.6,5.151,1.249,2.81-.312,6.487,1.523,8.96,1.011,1.367,2.766,1.911,4.271,2.71a16.721,16.721,0,0,1,5.163,4.577l-26.323,20.4a17.725,17.725,0,0,0-6.781,12.244l-2.6,25.948a31.566,31.566,0,0,0-1.174,9.059,15.438,15.438,0,0,0,1.592,8.117l.574-.137c.624,18.2,1.711,44.385,2.785,49.224.624,2.872,4.564,7.936,9.871,13.155l-1.873,5.307h.624l-.624,1.667h1.249c-5.295,19.13-19.7,33.547-19.7,33.547S259.679,503.094,294.131,504.08Zm-31.305-88.4v-20.4c3.072.475,5.338,1.536,6.063,3.471Zm8.891-88.771.1.15h-.037Z" transform="translate(-131.863 -112.294)" fill="url(#linear-gradient-3)"/>
    <path id="Path_100" data-name="Path 100" d="M420.31,461.661s1.592,56.579,3.19,63.753,24.712,28.714,36.656,29.513c0,0,12.749,30.281,27.1,25.5s15.94-30.281,8.741-33.472l-47.782-30.281V456.11Z" transform="translate(-204.716 -200.727)" fill="#fdb797"/>
    <path id="Path_101" data-name="Path 101" d="M351.744,576.09s20.722,44.629,18.331,51.822-135.485,0-135.485,0,24.706-24.706,19.923-51.822Z" transform="translate(-134.951 -245.797)" fill="#565171"/>
    <path id="Path_102" data-name="Path 102" d="M358.373,361.336s-3.19,31.08,2.391,38.254-22.314,11.151-24.681,11.151-27.89-8.741-32.673-11.157-8.741-19.923-8.741-19.923,23.907,4.783,31.08-23.1Z" transform="translate(-157.52 -163.331)" fill="#fdb797"/>
    <path id="Path_103" data-name="Path 103" d="M358.743,234.854c6.038,2.173,11.6,6.343,14.179,12.219.9,2.042,1.436,4.277,2.735,6.094,2.9,4.046,8.572,4.808,12.606,7.723,5.176,3.746,7.093,10.783,6.375,17.126s-3.634,12.206-6.5,17.913c-3.016,6-6.131,12.137-11.082,16.67-2.31,2.117-5.145,4.083-5.881,7.13-.624,2.616.487,5.344.25,8.029-.574,6.624-8.491,9.709-15.1,10.445-2.872.318-6.162.337-8.185-1.729a14.238,14.238,0,0,1-2.216-3.834,18.375,18.375,0,0,0-32.772-.337c-1.548,2.984-2.454,6.6-5.276,8.423-4.321,2.791-10.1-.487-13.274-4.52s-5.494-9.1-10.033-11.519c-1.43-.762-3.122-1.249-4.052-2.572-1.742-2.348-.262-5.838-1.442-8.51-.893-2.01-3.084-3.122-4.37-4.895-2.622-3.659-.724-8.741,1.249-12.768L287.335,272.4c3.122-6.518,6.337-13.111,10.745-18.831C311.573,235.978,337.558,227.225,358.743,234.854Z" transform="translate(-149.536 -116.573)" fill="#8f5a6a"/>
    <path id="Path_104" data-name="Path 104" d="M318.232,417.149s-31.08,0-39.047-28.689l-26.161,20.273a16.858,16.858,0,0,0-6.437,11.632l-2.5,24.681s-2.791,9.166.4,14.741c0,0,33.091-8.366,33.871,1.193l-23.089,64.552s35.863.8,45.422-5.576c0,0,39.047,7.967,48.612-.8s19.124-7.967,11.157-27.89c0,0,15.94-15.94,8.741-38.254s-.4.4-.4.4,15.54-7.573,14.741-21.915l-1.592-14.36s-.087-.474-.306-1.33c-4.858-18.905-17.913-29.345-36.263-22.689-5.363,1.942-10.845-.281-10.845-.281S340.541,418.766,318.232,417.149Z" transform="translate(-138.095 -175.314)" opacity="0.1"/>
    <path id="Path_105" data-name="Path 105" d="M318.232,414.6s-31.08,0-39.047-28.689l-26.16,20.273a16.858,16.858,0,0,0-6.437,11.625l-2.5,24.681s-2.791,9.166.4,14.741c0,0,33.091-8.366,33.871,1.193l-23.1,64.552s35.863.8,45.422-5.576c0,0,39.047,7.967,48.612-.8s19.124-7.967,11.157-27.89c0,0,15.94-15.94,8.741-38.254s-.4.4-.4.4,15.54-7.573,14.741-21.915l-1.592-14.36s-.087-.475-.306-1.33c-4.857-18.905-17.913-29.345-36.263-22.689-5.363,1.942-10.845-.281-10.845-.281S340.541,416.191,318.232,414.6Z" transform="translate(-138.095 -174.356)" fill="#b45181"/>
    <path id="Path_106" data-name="Path 106" d="M245.45,471.9s1.592,56.579,3.19,63.753,24.706,28.689,36.656,29.488c0,0,12.749,30.281,27.1,25.5s15.94-30.281,8.741-33.472l-47.813-30.281V466.32Z" transform="translate(-139.031 -204.562)" fill="#fdb797"/>
    <path id="Path_107" data-name="Path 107" d="M279.562,471.509s-18.312,12.437-34.265,11.4c0,0-1.592-21.359,3.19-22.552S273.986,460.358,279.562,471.509Z" transform="translate(-138.878 -202.184)" opacity="0.1"/>
    <path id="Path_108" data-name="Path 108" d="M279.562,470.235s-18.312,12.437-34.265,11.395c0,0-1.592-21.359,3.19-22.552S273.986,459.078,279.562,470.235Z" transform="translate(-138.878 -201.703)" fill="#b45181"/>
    <path id="Path_109" data-name="Path 109" d="M337.812,359.1l32.673,4.783s-.737,7.193-.88,15.453a36.675,36.675,0,0,1-38.454-6.244A36.135,36.135,0,0,0,337.812,359.1Z" transform="translate(-171.223 -164.285)" opacity="0.1"/>
    <circle id="Ellipse_8" data-name="Ellipse 8" cx="36.656" cy="36.656" r="36.656" transform="translate(149.057 143.018)" fill="#fdb797"/>
    <path id="Path_110" data-name="Path 110" d="M335.81,298.338a11.379,11.379,0,0,0,4.9.7q9.727-.062,19.436-.718c4.907-.331,10.14-.905,13.923-4.046,5.095-4.227,5.9-12.15,3.272-18.225s-7.992-10.552-13.655-13.973a40.763,40.763,0,0,0-10.314-4.676c-10.508-2.853-22.127.624-30.475,7.648s-13.667,17.095-16.483,27.615c-.974,3.64-2.223,7.973-5.825,9.078,2.4,3.99,8.248,4.62,12.456,2.622,6.194-2.947,9.365-14.223,14.928-16C334.162,286.413,330.553,295.928,335.81,298.338Z" transform="translate(-159.744 -125.707)" opacity="0.1"/>
    <path id="Path_111" data-name="Path 111" d="M335.821,297.077a11.379,11.379,0,0,0,4.9.7q9.727-.062,19.436-.718c4.907-.331,10.14-.905,13.923-4.046,5.095-4.227,5.9-12.15,3.272-18.225s-7.992-10.552-13.655-13.973a40.766,40.766,0,0,0-10.3-4.645c-10.508-2.853-22.127.624-30.475,7.648s-13.667,17.095-16.483,27.615c-.974,3.64-2.223,7.973-5.825,9.078,2.4,3.99,8.248,4.62,12.456,2.622,6.194-2.947,9.365-14.223,14.928-16C334.173,285.158,330.564,294.667,335.821,297.077Z" transform="translate(-159.755 -125.245)" fill="#8f5a6a"/>
    <path id="Path_112" data-name="Path 112" d="M409.746,547.042a141.173,141.173,0,0,0-36.656-4.783" transform="translate(-186.978 -233.088)" opacity="0.1"/>
    <path id="Path_113" data-name="Path 113" d="M300.33,481s11.956,8.741,8.741,13.549" transform="translate(-159.646 -210.076)" opacity="0.1"/>
    <g id="Group_3" data-name="Group 3" transform="translate(79.841 361.28)" opacity="0.7">
      <path id="Path_114" data-name="Path 114" d="M519.164,578.64H127.88v34.208h22.776V720.494H497.2V612.848h21.965Z" transform="translate(-127.88 -578.64)" fill="url(#linear-gradient)"/>
    </g>
    <rect id="Rectangle_14" data-name="Rectangle 14" width="339.481" height="121.93" transform="translate(106.139 381.203)" fill="#e0e0e0"/>
    <rect id="Rectangle_15" data-name="Rectangle 15" width="339.481" height="19.124" transform="translate(106.139 387.578)" opacity="0.1"/>
    <rect id="Rectangle_16" data-name="Rectangle 16" width="383.317" height="32.673" transform="translate(83.824 367.655)" fill="#e0e0e0"/>
    <rect id="Rectangle_17" data-name="Rectangle 17" width="73.318" height="10.358" rx="5.179" transform="translate(156.249 359.613)" fill="#535461"/>
    <g id="Group_4" data-name="Group 4" transform="translate(200.872 244.107)" opacity="0.7">
      <rect id="Rectangle_18" data-name="Rectangle 18" width="182.218" height="125.995" rx="28.22" fill="url(#linear-gradient)"/>
    </g>
    <rect id="Rectangle_19" data-name="Rectangle 19" width="172.616" height="123.666" rx="26.84" transform="translate(204.125 246.436)" fill="#3e3f49"/>
    <rect id="Rectangle_20" data-name="Rectangle 20" width="172.616" height="123.666" rx="26.84" transform="translate(206.516 246.436)" fill="#535461"/>
    <circle id="Ellipse_9" data-name="Ellipse 9" cx="5.575" cy="5.575" r="5.575" transform="translate(295.312 301.842)" fill="#e0e0e0"/>
  </g>
</svg>
