<svg xmlns="http://www.w3.org/2000/svg" width="870.661" height="693.953" viewBox="0 0 870.661 693.953">
  <g id="Group_9" data-name="Group 9" transform="translate(-5682 -33)">
    <path id="Path_3" data-name="Path 3" d="M80.859,603l-9.5,71h19Z" transform="translate(5682 38)" fill="#3f3d56"/>
    <path id="Path_4" data-name="Path 4" d="M70.859,609l-9.5,71h19Z" transform="translate(5682 38)" fill="#3f3d56"/>
    <path id="Path_5" data-name="Path 5" d="M58.859,609l-9.5,71h19Z" transform="translate(5682 38)" fill="#3f3d56"/>
    <path id="Path_6" data-name="Path 6" d="M652.859,581l-9.5,71h19Z" transform="translate(5682 38)" fill="#3f3d56"/>
    <path id="Path_7" data-name="Path 7" d="M665.859,581l-9.5,71h19Z" transform="translate(5682 38)" fill="#3f3d56"/>
    <path id="Path_8" data-name="Path 8" d="M675.859,596l-9.5,71h19Z" transform="translate(5682 38)" fill="#3f3d56"/>
    <path id="Path_9" data-name="Path 9" d="M688.859,596l-9.5,71h19Z" transform="translate(5682 38)" fill="#3f3d56"/>
    <path id="Path_10" data-name="Path 10" d="M744.859,607l-9.5,71h19Z" transform="translate(5682 38)" fill="#3f3d56"/>
    <path id="Path_11" data-name="Path 11" d="M757.859,607l-9.5,71h19Z" transform="translate(5682 38)" fill="#3f3d56"/>
    <path id="Path_12" data-name="Path 12" d="M775.889,682h-16.06l.54-4,3.38-25.26.11-.87,4-29.87,4.38,32.75,2.12,15.83Z" transform="translate(5682 38)" fill="#3f3d56"/>
    <path id="Path_13" data-name="Path 13" d="M788.889,682h-16.06l1.53-11.42,1.99-14.84,4.51-33.74,4.82,36.04v.01l1.41,10.53Z" transform="translate(5682 38)" fill="#3f3d56"/>
    <path id="Path_14" data-name="Path 14" d="M802.419,682H785.3l1.79-13.42,1.32-9.85,5.45-40.73,5.84,43.62.66,4.96Z" transform="translate(5682 38)" fill="#3f3d56"/>
    <path id="Path_15" data-name="Path 15" d="M815.419,682H798.3l2.06-15.42.62-4.63,5.88-43.95,6,44.87.32,2.34Z" transform="translate(5682 38)" fill="#3f3d56"/>
    <path id="Path_16" data-name="Path 16" d="M823.419,682H810.3l2.27-16.95.29-2.18,4-29.87,4.61,34.49,1.89,14.09Z" transform="translate(5682 38)" fill="#3f3d56"/>
    <path id="Path_17" data-name="Path 17" d="M836.419,682H823.3l.06-.42,1.75-13.08,4.75-35.5,5.13,38.31Z" transform="translate(5682 38)" fill="#3f3d56"/>
    <circle id="Ellipse_2" data-name="Ellipse 2" cx="95.5" cy="95.5" r="95.5" transform="translate(5820.359 33)" fill="#ff9300"/>
    <path id="Path_18" data-name="Path 18" d="M1035.029,793.523h-870s176.64-67.87,436.81-67.1c1.46,0,2.92.01,4.38.02q7.785.045,15.66.17,6.165.105,12.38.26c1.79.04,3.58.09,5.38.14l2.14.06c1.65.05,3.31.1,4.98.16,3.13.1,6.27.22,9.42.34q4.14.165,8.32.36c1.06.04,2.14.09,3.21.15q7.575.345,15.21.8l3.55.21c1.63.09,3.27.2,4.9.3q3.24.21,6.48.43c2.81.19,5.61.39,8.42.6q8.82.645,17.74,1.42c4.42.37,8.85.78,13.3,1.2q2.835.27,5.69.56,4.365.42,8.75.89l5.59.6c2.25.24,4.49.49,6.74.75s4.5.52,6.75.79,4.52.543,6.78.82,4.53.56,6.8.86c2.24.28,4.48.58,6.73.88q14.37,1.905,28.95,4.15c1.86.28,3.74.57,5.61.87q2.895.45,5.81.93,4.05.645,8.13,1.34c2.33.39,4.66.78,7,1.19,2.11.36,4.24.73,6.36,1.11l.66.12c2.34.41,4.69.84,7.03,1.27s4.71.87,7.06,1.31,4.72.89,7.08,1.35,4.73.92,7.1,1.39l5.54,1.11c.92.19,1.84.37,2.76.56q2.97.615,5.96,1.24,3.57.75,7.15,1.51c.27.06.53.12.8.17q5.55,1.2,11.11,2.44c.5.11,1.01.23,1.52.34q2.91.645,5.82,1.32c1.94.45,3.88.89,5.83,1.35a2.035,2.035,0,0,1,.24.05c2.75.64,5.49,1.29,8.25,1.96q2.055.48,4.11.99c1.88.45,3.75.91,5.63,1.38,1.23.31,2.46.62,3.7.93.91.21,1.82.44,2.73.68q2.88.705,5.77,1.46,2.685.69,5.37,1.39a.838.838,0,0,1,.15.04l1.28.33c1.31.34,2.62.69,3.94,1.04,1.35.36,2.71.72,4.07,1.09,1.19.32,2.39.64,3.58.97a.3.3,0,0,1,.1.02c.17.04.34.09.51.14,1.38.37,2.76.74,4.14,1.13s2.76.76,4.15,1.15c.14.03.28.07.42.11q1.6.435,3.21.9s0-.01.01,0c.61.16,1.22.34,1.83.51q2.445.69,4.89,1.39c1.05.3,2.11.6,3.16.91,2.93.85,5.87,1.7,8.81,2.57s5.89,1.75,8.83,2.64c1.77.53,3.53,1.07,5.3,1.62q2.49.75,4.98,1.53C1030.059,791.963,1032.549,792.733,1035.029,793.523Z" transform="translate(5517.33 -67.523)" fill="#e6e6e6"/>
    <path id="Path_19" data-name="Path 19" d="M1034.727,794.477c-246.232-77.947-469.509-73.795-613.455-56.585-155.947,18.645-254.9,56.188-255.885,56.565l-.718-1.867c.984-.378,100.173-38.011,256.365-56.685a1486.912,1486.912,0,0,1,276.89-7.083A1444.326,1444.326,0,0,1,1035.33,792.57Z" transform="translate(5517.33 -67.523)" fill="#3f3d56"/>
    <circle id="Ellipse_3" data-name="Ellipse 3" cx="163.5" cy="163.5" r="163.5" transform="translate(6225.359 73.951)" fill="#63ffc3"/>
    <path id="Path_20" data-name="Path 20" d="M993.15,195.769A163.513,163.513,0,0,1,720.711,368.812,163.514,163.514,0,1,0,993.15,195.769Z" transform="translate(5517.33 -67.523)" opacity="0.2"/>
    <path id="Path_21" data-name="Path 21" d="M707.308,199.451h.449L715.842,663H698.774Z" transform="translate(5682 38)" fill="#3f3d56"/>
    <rect id="Rectangle_6" data-name="Rectangle 6" width="8.085" height="30.544" transform="translate(6415.312 482.79) rotate(62.234)" fill="#3f3d56"/>
    <path id="Path_22" data-name="Path 22" d="M422.456,287.5l48.875,11.185,20.65-38.948-41.792-16.316Z" transform="translate(5682 38)" fill="#2f2e41"/>
    <path id="Path_23" data-name="Path 23" d="M613.093,602.687s-15.711,36-15.711,46.478c0,0,6.219,28.476,4.255,36.331l-6.874,14.729-14.4-5.892-3.928-39.277.655-62.844Z" transform="translate(5517.33 -67.523)" fill="#ffb9b9"/>
    <path id="Path_24" data-name="Path 24" d="M621.93,387.317s1.309,21.6-1.309,28.149,9.819,18.984,9.819,18.984l19.639-25.53s-13.092-13.092-9.819-27.494Z" transform="translate(5517.33 -67.523)" fill="#ffb9b9"/>
    <path id="Path_25" data-name="Path 25" d="M583.962,439.032v34.695L581.016,536.9s-18.984,35.349-.655,32.731,12.11-33.713,12.11-33.713l6.219-61.862-.327-37.641Z" transform="translate(5517.33 -67.523)" fill="#ffb9b9"/>
    <path id="Path_26" data-name="Path 26" d="M576.761,689.752l28.149-11.129,3.273,55.643s5.892,17.02,3.928,23.566c0,0,1.309,11.129-1.964,11.783s-12.438,1.964-13.092,1.309-.655-2.618-.655-2.618-6.546,4.582-7.2,9.819c0,0-27.494,8.51-28.149.655s13.747-14.4,13.747-14.4l11.129-17.02Z" transform="translate(5517.33 -67.523)" fill="#2f2e41"/>
    <path id="Path_27" data-name="Path 27" d="M671.681,602.687s-15.711,36-15.711,46.478c0,0,6.219,28.476,4.255,36.331l-6.874,14.729-14.4-5.892-3.928-39.277.655-62.844Z" transform="translate(5517.33 -67.523)" fill="#ffb9b9"/>
    <path id="Path_28" data-name="Path 28" d="M636.332,689.752l28.149-11.129,3.273,55.643s5.892,17.02,3.928,23.566c0,0,1.309,11.129-1.964,11.783s-12.438,1.964-13.092,1.309-.655-2.618-.655-2.618-6.546,4.582-7.2,9.819c0,0-27.494,8.51-28.149.655s13.747-14.4,13.747-14.4l11.129-17.02Z" transform="translate(5517.33 -67.523)" fill="#2f2e41"/>
    <circle id="Ellipse_4" data-name="Ellipse 4" cx="20.948" cy="20.948" r="20.948" transform="translate(6124.858 283.789)" fill="#ffb9b9"/>
    <path id="Path_29" data-name="Path 29" d="M631.095,414.156l16.256-8.442,7.311,5.823s17.675-.655,24.221,7.2,10.147,27.821,10.147,27.821-21.6-4.582-18.984,13.747l-3.928-10.474-3.6,8.837-43.86,15.056-19.639-33.386s-13.092-3.928-17.675,5.237c0,0,.982-33.058,13.747-34.04,8.585-.66,15.056-.655,15.056-.655l7.2-1.309,4.611-1.637Z" transform="translate(5517.33 -67.523)" fill="#6c63ff"/>
    <path id="Path_30" data-name="Path 30" d="M667,412s-10.014,27.98,1.588,40.6l-9.672,33.239s34.368,103.1,24.548,117.5c0,0-36.659,18.329-109.976-6.546l29.785-115.541-4.255-48.769,5.892-22.912L618,408.265s-7.855,29.458,6.546,34.04S653,409,653,409Z" transform="translate(5517.33 -67.523)" fill="#2f2e41"/>
    <path id="Path_31" data-name="Path 31" d="M667.426,439.032v34.695L664.48,536.9s-18.984,35.349-.655,32.731,12.11-33.713,12.11-33.713l4.582-62.189,1.309-37.313Z" transform="translate(5517.33 -67.523)" fill="#ffb9b9"/>
    <path id="Path_32" data-name="Path 32" d="M689.029,446.56s-2.327-33.618-21.784-33.5v38.878S681.828,443.287,689.029,446.56Z" transform="translate(5517.33 -67.523)" fill="#6c63ff"/>
    <path id="Path_33" data-name="Path 33" d="M616.649,342.94s-10.827,2.037-13.331,15.54a24.786,24.786,0,0,0-.212,6.895c.25,2.6-.113,8.089-5.756,14.553a141.537,141.537,0,0,0-10.276,13.2h0l11.313,3.012,5.055-18.744a95.883,95.883,0,0,1,11.2-25.753l.1-.167s3.758,10.04,13.829,11.416l-3.105-4.088s11.773,6.806,18.443,8.885a4.383,4.383,0,0,1,1.414,7.621l-.145.112c-4.906,3.726-14.915,12.618-10.961,21.219s-.657,10.169-.657,10.169l8.5-3.235,3.892-1.667-.393,2.877,19,.4s5.134-.031-3.985-13.735c0,0-2.2-5.138-.394-9.064a20.853,20.853,0,0,0,2.106-9.555C661.721,359.012,655.9,330.9,616.649,342.94Z" transform="translate(5517.33 -67.523)" fill="#2f2e41"/>
    <ellipse id="Ellipse_5" data-name="Ellipse 5" cx="6.546" cy="5.892" rx="6.546" ry="5.892" transform="matrix(0.135, -0.991, 0.991, 0.135, 6140.451, 308.164)" fill="#2f2e41"/>
    <ellipse id="Ellipse_6" data-name="Ellipse 6" cx="6.546" cy="5.892" rx="6.546" ry="5.892" transform="matrix(0.135, -0.991, 0.991, 0.135, 6125.533, 306.125)" fill="#2f2e41"/>
    <rect id="Rectangle_7" data-name="Rectangle 7" width="13.352" height="2" transform="translate(6152.384 301.54) rotate(-3.539)" fill="#2f2e41"/>
    <rect id="Rectangle_8" data-name="Rectangle 8" width="2" height="6.547" transform="matrix(0.135, -0.991, 0.991, 0.135, 6136.013, 301.959)" fill="#2f2e41"/>
    <path id="Path_34" data-name="Path 34" d="M481.181,772.447s.691-14.47,14.847-12.788" transform="translate(5517.33 -67.523)" fill="#3f3d56"/>
    <circle id="Ellipse_7" data-name="Ellipse 7" cx="7.085" cy="7.085" r="7.085" transform="translate(5987.427 676.984)" fill="#6c63ff"/>
    <rect id="Rectangle_9" data-name="Rectangle 9" width="2" height="14" transform="translate(5993.359 696)" fill="#3f3d56"/>
    <path id="Path_35" data-name="Path 35" d="M739.181,775.447s.691-14.47,14.847-12.788" transform="translate(5517.33 -67.523)" fill="#3f3d56"/>
    <circle id="Ellipse_8" data-name="Ellipse 8" cx="7.085" cy="7.085" r="7.085" transform="translate(6245.427 679.984)" fill="#6c63ff"/>
    <rect id="Rectangle_10" data-name="Rectangle 10" width="2" height="14" transform="translate(6251.359 699)" fill="#3f3d56"/>
    <path id="Path_36" data-name="Path 36" d="M314.181,750.447s.691-14.47,14.847-12.788" transform="translate(5517.33 -67.523)" fill="#3f3d56"/>
    <circle id="Ellipse_9" data-name="Ellipse 9" cx="7.085" cy="7.085" r="7.085" transform="translate(5820.426 654.984)" fill="#6c63ff"/>
    <rect id="Rectangle_11" data-name="Rectangle 11" width="2" height="14" transform="translate(5826.359 674)" fill="#3f3d56"/>
    <path id="Path_37" data-name="Path 37" d="M423.181,731.447s.691-14.47,14.847-12.788" transform="translate(5517.33 -67.523)" fill="#3f3d56"/>
    <circle id="Ellipse_10" data-name="Ellipse 10" cx="7.085" cy="7.085" r="7.085" transform="translate(5929.426 635.984)" fill="#6c63ff"/>
    <rect id="Rectangle_12" data-name="Rectangle 12" width="2" height="14" transform="translate(5935.359 655)" fill="#3f3d56"/>
    <path id="Path_38" data-name="Path 38" d="M696.181,758.447s.691-14.47,14.847-12.788" transform="translate(5517.33 -67.523)" fill="#3f3d56"/>
    <circle id="Ellipse_11" data-name="Ellipse 11" cx="7.085" cy="7.085" r="7.085" transform="translate(6202.427 662.984)" fill="#6c63ff"/>
    <rect id="Rectangle_13" data-name="Rectangle 13" width="2" height="14" transform="translate(6208.359 682)" fill="#3f3d56"/>
  </g>
</svg>
